<svg xmlns="http://www.w3.org/2000/svg" height="511pt" version="1.1" viewBox="-49 1 511 511.99998" width="511pt">
<g id="surface1">
<path d="M 414.28125 118.523438 L 414.28125 474.320312 C 414.28125 495.136719 397.414062 512 376.601562 512 L 38.179688 512 C 17.363281 512 0.5 495.136719 0.5 474.320312 L 0.5 37.679688 C 0.5 16.863281 17.363281 0 38.179688 0 L 295.757812 0 Z M 414.28125 118.523438 " style=" stroke:none;fill-rule:nonzero;fill:rgb(90.196078%,90.196078%,90.196078%);fill-opacity:1;" />
<path d="M 372.484375 118.523438 L 372.484375 470.203125 L 42.296875 470.203125 L 42.296875 41.792969 L 295.757812 41.792969 " style=" stroke:none;fill-rule:nonzero;fill:rgb(25.882353%,75.294118%,88.627451%);fill-opacity:1;" />
<path d="M 372.484375 384.960938 L 372.484375 470.203125 L 115.542969 470.203125 L 175.070312 386.746094 L 274.410156 247.484375 Z M 372.484375 384.960938 " style=" stroke:none;fill-rule:nonzero;fill:rgb(14.117647%,19.215686%,25.882353%);fill-opacity:1;" />
<path d="M 234.609375 470.203125 L 42.296875 470.203125 L 42.296875 403.289062 L 114.582031 301.941406 L 175.070312 386.746094 Z M 234.609375 470.203125 " style=" stroke:none;fill-rule:nonzero;fill:rgb(24.313725%,29.411765%,36.078431%);fill-opacity:1;" />
<path d="M 414.28125 118.523438 L 333.4375 118.523438 C 312.621094 118.523438 295.757812 101.65625 295.757812 80.84375 L 295.757812 0 " style=" stroke:none;fill-rule:nonzero;fill:rgb(80%,80%,80%);fill-opacity:1;" />
<path d="M 223.265625 163.882812 C 223.265625 200.242188 193.792969 229.71875 157.433594 229.71875 C 121.074219 229.71875 91.597656 200.242188 91.597656 163.882812 C 91.597656 127.523438 121.074219 98.046875 157.433594 98.046875 C 193.792969 98.046875 223.265625 127.523438 223.265625 163.882812 Z M 223.265625 163.882812 " style=" stroke:none;fill-rule:nonzero;fill:rgb(100%,81.568627%,38.039216%);fill-opacity:1;" />
</g>
</svg>